<svg xmlns="http://www.w3.org/2000/svg" enable-background="new 0 0 64 64" viewBox="0 0 64 64"><path fill="#4e5292" d="M61.54,21.53h-2.74v-2.75c0-2-1.62-3.62-3.61-3.62h-6.92v-1.83h0.27c1.26,0,2.29-1.03,2.29-2.29V5.57
		c0-1.26-1.03-2.29-2.29-2.29h-0.27V0.97c0-0.54-0.44-0.97-0.97-0.97c-0.54,0-0.97,0.43-0.97,0.97v2.31h-0.28
		c-1.26,0-2.29,1.03-2.29,2.29v5.47c0,1.26,1.03,2.29,2.29,2.29h0.28v1.83h-7.41v-1.83h0.28c1.26,0,2.29-1.03,2.29-2.29V5.57
		c0-1.26-1.03-2.29-2.29-2.29h-0.28V0.97c0-0.54-0.44-0.97-0.97-0.97c-0.53,0-0.97,0.43-0.97,0.97v2.31h-0.28
		c-1.26,0-2.29,1.03-2.29,2.29v5.47c0,1.26,1.03,2.29,2.29,2.29h0.28v1.83H11.03v-4.98c0-0.54-0.44-0.97-0.97-0.97H6.03
		c-0.53,0-0.97,0.43-0.97,0.97v4.98H3.79c-2,0-3.62,1.62-3.62,3.62v15.25c0,2,1.62,3.62,3.62,3.62h3.6v7.77
		c0,0.54,0.43,0.97,0.97,0.97c0.53,0,0.97-0.43,0.97-0.97v-7.77h4.02c2,0,3.62-1.62,3.62-3.62v-4.45c0-0.19,0.16-0.35,0.35-0.35
		h20.12c0.19,0,0.36,0.16,0.36,0.35v21.1H5.11c-2.72,0-4.94,2.21-4.94,4.93v7.43c0,0.53,0.44,0.97,0.97,0.97h56.68
		c0.53,0,0.97-0.44,0.97-0.97V33.99h2.74c1.26,0,2.29-1.03,2.29-2.29v-7.87C63.83,22.56,62.8,21.53,61.54,21.53z M46.04,11.38
		c-0.19,0-0.35-0.16-0.35-0.35V5.57c0-0.19,0.16-0.35,0.35-0.35h1.24c0,0,0,0,0.01,0c0,0,0,0,0.01,0h1.23
		c0.19,0,0.35,0.16,0.35,0.35v5.47c0,0.19-0.16,0.35-0.35,0.35H46.04z M36.69,11.38c-0.19,0-0.35-0.16-0.35-0.35V5.57
		c0-0.19,0.16-0.35,0.35-0.35h2.5c0.19,0,0.35,0.16,0.35,0.35v5.47c0,0.19-0.16,0.35-0.35,0.35H36.69z M7,11.14h2.08v4.01H7V11.14z
		 M56.85,62.06H2.11V55.6c0-1.65,1.35-2.99,3-2.99h48.75c1.65,0,3,1.34,3,2.99V62.06z M56.85,51.71c-0.83-0.65-1.86-1.04-3-1.04
		H39.74v-21.1c0-1.26-1.03-2.29-2.3-2.29H17.32c-1.26,0-2.29,1.03-2.29,2.29v4.45c0,0.92-0.76,1.68-1.68,1.68H3.79
		c-0.92,0-1.68-0.76-1.68-1.68V18.77c0-0.92,0.76-1.68,1.68-1.68h34.14c0.01,0,0.01,0,0.01,0h9.34c0,0,0,0,0.01,0h7.89
		c0.91,0,1.67,0.76,1.67,1.68V51.71z M61.89,31.7c0,0.19-0.16,0.35-0.35,0.35h-2.74v-8.58h2.74c0.18,0,0.35,0.16,0.35,0.36V31.7z"/><path fill="#4e5292" d="M11.83,26.03c0,0.53-0.44,0.97-0.97,0.97H5.11c-0.54,0-0.97-0.44-0.97-0.97s0.43-0.97,0.97-0.97h5.75
		C11.39,25.06,11.83,25.49,11.83,26.03z"/><path fill="#b9e0ce" d="M55.19,17.1h-7.89c-0.01,0-0.01,0-0.01,0h-9.34c0,0,0,0-0.01,0H3.79c-0.92,0-1.68,0.76-1.68,1.68v15.25
		c0,0.92,0.76,1.68,1.68,1.68h9.56c0.92,0,1.68-0.76,1.68-1.68v-4.45c0-1.26,1.03-2.29,2.29-2.29h20.12c1.27,0,2.3,1.03,2.3,2.29
		v21.1h14.12c1.13,0,2.16,0.39,3,1.04V18.77C56.85,17.85,56.1,17.1,55.19,17.1z M4.14,26.03c0-0.53,0.43-0.97,0.97-0.97h5.75
		c0.53,0,0.97,0.44,0.97,0.97S11.39,27,10.86,27H5.11C4.57,27,4.14,26.56,4.14,26.03z M11.23,31.39H5.48
		c-0.53,0-0.97-0.44-0.97-0.97c0-0.53,0.44-0.97,0.97-0.97h5.75c0.54,0,0.97,0.44,0.97,0.97C12.2,30.95,11.77,31.39,11.23,31.39z"/><path fill="#4e5292" d="M12.2,30.42c0,0.53-0.43,0.97-0.97,0.97H5.48c-0.53,0-0.97-0.44-0.97-0.97c0-0.53,0.44-0.97,0.97-0.97h5.75
		C11.77,29.45,12.2,29.89,12.2,30.42z"/><rect width="2.08" height="4.01" x="7" y="11.14" fill="#98d3ba"/><path fill="#ec9aad" d="M39.54,5.57v5.47c0,0.19-0.16,0.35-0.35,0.35h-2.5c-0.19,0-0.35-0.16-0.35-0.35V5.57
		c0-0.19,0.16-0.35,0.35-0.35h2.5C39.39,5.22,39.54,5.37,39.54,5.57z"/><path fill="#d88b9e" d="M39.54,5.57v5.47c0,0.19-0.16,0.35-0.35,0.35h-0.66c0.1,0,0.16-0.16,0.16-0.35V5.57
		c0-0.19-0.07-0.35-0.16-0.35h0.66C39.39,5.22,39.54,5.37,39.54,5.57z"/><path fill="#f1b8c7" d="M37.35,11.38h-0.66c-0.19,0-0.35-0.16-0.35-0.35V5.57c0-0.19,0.16-0.35,0.35-0.35h0.66
		c-0.1,0-0.17,0.16-0.17,0.35v5.47C37.18,11.23,37.26,11.38,37.35,11.38z"/><path fill="#f0ca6c" d="M48.88,5.57v5.47c0,0.19-0.16,0.35-0.35,0.35h-2.49c-0.19,0-0.35-0.16-0.35-0.35V5.57
		c0-0.19,0.16-0.35,0.35-0.35h1.24c0,0,0,0,0.01,0c0,0,0,0,0.01,0h1.23C48.73,5.22,48.88,5.37,48.88,5.57z"/><path fill="#e1ba62" d="M48.88,5.57v5.47c0,0.19-0.16,0.35-0.35,0.35h-0.66c0.09,0,0.16-0.16,0.16-0.35V5.57
		c0-0.19-0.08-0.35-0.16-0.35h0.66C48.73,5.22,48.88,5.37,48.88,5.57z"/><path fill="#ffdb7c" d="M46.7,11.38h-0.66c-0.19,0-0.35-0.16-0.35-0.35V5.57c0-0.19,0.16-0.35,0.35-0.35h0.66
		c-0.09,0-0.16,0.16-0.16,0.35v5.47C46.54,11.23,46.61,11.38,46.7,11.38z"/><path fill="#ccd5dd" d="M61.89,23.83v7.87c0,0.19-0.16,0.35-0.35,0.35h-2.74v-8.58h2.74C61.72,23.47,61.89,23.63,61.89,23.83z"/><path fill="#b5c3cc" d="M61.89,23.83v7.87c0,0.19-0.16,0.35-0.35,0.35h-1.55c0.18,0,0.36-0.16,0.36-0.35v-7.87
		c0-0.19-0.17-0.36-0.36-0.36h1.55C61.72,23.47,61.89,23.63,61.89,23.83z"/><path fill="#d8dfe6" d="M56.85,55.6v6.46H2.11V55.6c0-1.65,1.35-2.99,3-2.99h48.75C55.51,52.62,56.85,53.95,56.85,55.6z"/><path fill="#ccd5dd" d="M53.62,52.62v1.41c0,2.66-2.15,4.81-4.81,4.81H2.11V55.6c0-1.65,1.35-2.99,3-2.99H53.62z"/><path fill="#b5c3cc" d="M56.85,55.6v6.46H2.11v-3.23h46.7c2.66,0,4.81-2.15,4.81-4.81v-1.41h0.23C55.51,52.62,56.85,53.95,56.85,55.6
		z"/><path fill="#98d3ba" d="M53.62,17.1v33.58h-7.64c1.12-0.88,1.82-2.24,1.82-3.77V17.1H53.62z"/><path fill="#89c3a8" d="M56.85,18.77v32.94c-0.83-0.65-1.86-1.04-3-1.04h-0.23V17.1h1.56C56.1,17.1,56.85,17.85,56.85,18.77z"/></svg>