<svg xmlns="http://www.w3.org/2000/svg" viewBox="0 0 64 64"><path fill="#ff6243" d="M35,25h0A23,23,0,0,1,58,48v7a0,0,0,0,1,0,0H12a0,0,0,0,1,0,0V48A23,23,0,0,1,35,25Z"/><path fill="#e0e0e2" d="M38,22v6H32V22a3,3,0,0,1,6,0Z"/><polygon fill="#ffb655" points="13.57 28.94 13.07 29.8 10.07 35 9.57 35.87 6.11 33.87 10.11 26.94 13.57 28.94"/><path fill="#e0e0e2" d="M13.07,29.8l4.86,2.8a22.688,22.688,0,0,0-3.42,4.96L10.07,35Z"/><rect width="14" height="5" x="28" y="3" fill="#e0e0e2"/><path fill="#ff9811" d="M45.13,27.35C43.45,29.49,39.55,31,35,31s-8.45-1.51-10.13-3.65a22.535,22.535,0,0,1,7.16-2.15,22.152,22.152,0,0,1,5.94,0A22.535,22.535,0,0,1,45.13,27.35Z"/><rect width="52" height="6" x="9" y="55" fill="#cd2a00" rx="2"/><path d="M59 54V48a23.96 23.96 0 0 0-9-18.715V12a7.008 7.008 0 0 0-7-7V3a1 1 0 0 0-1-1H28a1 1 0 0 0-1 1V5a7.008 7.008 0 0 0-7 7V29.285a24.236 24.236 0 0 0-2.252 2.056l-3.309-1.906a1 1 0 0 0-.367-1.363l-3.465-2a1 1 0 0 0-1.366.366l-4 6.928a1 1 0 0 0 .366 1.366l3.465 2a1 1 0 0 0 1.366-.365l2.77 1.6A23.835 23.835 0 0 0 11 48v6a3 3 0 0 0-3 3v2a3 3 0 0 0 3 3H59a3 3 0 0 0 3-3V57A3 3 0 0 0 59 54zM29 4H41V7H29zm-7 8a5.006 5.006 0 0 1 5-5V8a1 1 0 0 0 1 1H42a1 1 0 0 0 1-1V7a5.006 5.006 0 0 1 5 5V27.842a23.834 23.834 0 0 0-9-3.5V22a4 4 0 0 0-8 0v2.34a23.834 23.834 0 0 0-9 3.5zM37 24.09c-.66-.055-1.326-.09-2-.09s-1.34.035-2 .09V22a2 2 0 0 1 4 0zM35 26a21.853 21.853 0 0 1 8.365 1.657A14.314 14.314 0 0 1 35 30a14.314 14.314 0 0 1-8.365-2.343A21.853 21.853 0 0 1 35 26zM7.474 33.5l3-5.2 1.729 1-3 5.2zm3.964 1.134l2-3.467 2.95 1.7a23.935 23.935 0 0 0-2.266 3.316zM13 48A22.016 22.016 0 0 1 24.667 28.585C26.786 30.675 30.706 32 35 32s8.214-1.325 10.333-3.415A22.016 22.016 0 0 1 57 48v6H47V48H45v6H13zM60 59a1 1 0 0 1-1 1H11a1 1 0 0 1-1-1V57a1 1 0 0 1 1-1H59a1 1 0 0 1 1 1zM4.722 23.305c-.388-.4-.522-.564-.522-.975s.134-.569.521-.972A3.143 3.143 0 0 0 5.8 19h-2c0 .409-.134.569-.521.972a3.119 3.119 0 0 0 0 4.718c.388.4.522.564.522.975s-.134.571-.522.975A3.151 3.151 0 0 0 2.2 29h2c0-.411.134-.571.522-.975a3.122 3.122 0 0 0 0-4.72zM7.2 23h2c0-.411.134-.571.522-.975a3.122 3.122 0 0 0 0-4.72c-.388-.4-.522-.564-.522-.975s.134-.569.521-.972A3.143 3.143 0 0 0 10.8 13h-2c0 .409-.134.569-.521.972a3.119 3.119 0 0 0 0 4.718c.388.4.522.564.522.975s-.134.571-.522.975A3.151 3.151 0 0 0 7.2 23z"/><rect width="2" height="2" x="45" y="44"/></svg>