<svg xmlns="http://www.w3.org/2000/svg" data-name="Layer 1" viewBox="0 0 32 32"><rect width="27" height="28" x="2.5" y="3.5" fill="#4ebaea" rx="2" ry="2"/><path fill="#2480c3" d="M15 7.67l-1 .99-.38.38a.99587.99587 0 0 1-1.41 0L6.80212 3.53155l-.31906.23066.01038.07635L12.21 10.04a.99587.99587 0 0 0 1.41 0L14 9.66l1-.99zM17 7.67l1 .99.38.38a.99587.99587 0 0 0 1.41 0l5.40787-5.50845.31906.23066-.01038.07635L19.79 10.04a.99587.99587 0 0 1-1.41 0L18 9.66l-1-.99z"/><path fill="#2e99d4" d="M18 6.5v25H17V6.5a.5.5 0 0 1 1 0zM15 6.5v25H14V6.5a.5.5 0 0 1 1 0z"/><path fill="#2e99d4" d="M9.19511.76451H13.5556a0,0,0,0,1,0,0v8.721a0,0,0,0,1,0,0H10.19511a1,1,0,0,1-1-1V.76451A0,0,0,0,1,9.19511.76451Z" transform="rotate(-45 11.375 5.125)"/><path fill="#2e99d4" d="M18.4444.76451h4.36049a0,0,0,0,1,0,0v7.721a1,1,0,0,1-1,1H18.4444a0,0,0,0,1,0,0V.76451a0,0,0,0,1,0,0Z" transform="rotate(45 20.625 5.125)"/><polygon fill="#4ebaea" points="9.834 .5 22.166 .5 16 6.667 9.834 .5"/><path fill="#2e99d4" d="M26.5,14.5v4a3,3,0,0,1-6,0v-4a1.003,1.003,0,0,1,1-1h4A1.003,1.003,0,0,1,26.5,14.5Z"/><circle cx="16" cy="12" r=".5" fill="#f2f2f2"/><circle cx="16" cy="16" r=".5" fill="#f2f2f2"/><circle cx="16" cy="20" r=".5" fill="#f2f2f2"/><circle cx="16" cy="24" r=".5" fill="#f2f2f2"/><circle cx="16" cy="28" r=".5" fill="#f2f2f2"/><rect width="6" height="1" x="20.5" y="15" fill="#2480c3"/></svg>