<svg xmlns="http://www.w3.org/2000/svg" viewBox="0 0 64 64"><defs><linearGradient id="a" x1="32" x2="32" y1="3" y2="61" gradientUnits="userSpaceOnUse"><stop offset="0" stop-color="#ff7047"/><stop offset="1" stop-color="#e63811"/></linearGradient><linearGradient id="b" x1="32" x2="32" y1="61" y2="3" gradientUnits="userSpaceOnUse"><stop offset="0" stop-color="#000406"/><stop offset="1" stop-color="#001521"/></linearGradient></defs><circle cx="32" cy="32" r="29" fill="url(#a)" data-name="Layer 2"/><path fill="url(#b)" d="M32,3A29,29,0,1,0,61,32,29.0328,29.0328,0,0,0,32,3ZM58.9648,30.6157A63.3494,63.3494,0,0,0,31.6361,24.65c.0018-.0381,0-.0717.0021-.11a18.2968,18.2968,0,0,1,3.2-9.9837A23.8653,23.8653,0,0,1,43.5046,7.58,27.0436,27.0436,0,0,1,58.9648,30.6157ZM41.1507,6.5993a24.198,24.198,0,0,0-7.9426,6.8151A20.2246,20.2246,0,0,0,29.6411,24.44c-.0046.0928-.0008.1752-.0047.2672a56.5879,56.5879,0,0,0-9.1784,1.2314c-.0954.0209-.19.0469-.2848.0683A44.6734,44.6734,0,0,1,28.0486,5.2919,26.9316,26.9316,0,0,1,41.1507,6.5993Zm-15.88-.75a46.6285,46.6285,0,0,0-7.1539,20.6562,57.43,57.43,0,0,0-5.4922,1.7555,12.1931,12.1931,0,0,0-4.8451-8.1758A27.114,27.114,0,0,1,25.27,5.8492ZM7.897,44.1444A26.7868,26.7868,0,0,1,5.082,34.0005a57.0906,57.0906,0,0,1,5.8725-2.92A20.9031,20.9031,0,0,1,7.897,44.1444ZM5.0063,31.7516a26.8385,26.8385,0,0,1,1.9422-9.8039,10.3744,10.3744,0,0,1,3.78,7.0612A58.9248,58.9248,0,0,0,5.0063,31.7516Zm4.0055,14.39a23.3945,23.3945,0,0,0,3.8861-15.85q2.4924-.956,5.0582-1.6632a46.545,46.545,0,0,0,8.6473,29.8286A27.076,27.076,0,0,1,9.0118,46.1415ZM29.4092,58.873a44.6375,44.6375,0,0,1-9.42-30.7655c.2991-.0707.5964-.1492.8967-.2149a54.6111,54.6111,0,0,1,8.7148-1.182c.0578,8.9094,3.268,13.9647,7.7844,18.0574A74.81,74.81,0,0,0,44.08,49.9521c1.4748,1.0574,2.9909,2.1493,4.508,3.3279A26.8574,26.8574,0,0,1,32,59C31.1259,59,30.2623,58.9546,29.4092,58.873Zm20.7456-6.9053c-1.66-1.3049-3.3093-2.4939-4.91-3.641a71.3056,71.3056,0,0,1-6.6184-5.1338c-4.1726-3.82-6.9851-8.424-7.0282-16.54a61.5986,61.5986,0,0,1,27.38,6.18A26.9363,26.9363,0,0,1,50.1548,51.9677Z" data-name="Layer 3"/></svg>