<svg xmlns="http://www.w3.org/2000/svg" enable-background="new 0 0 64 64" viewBox="0 0 64 64"><path fill="#2b2e63" d="M56.69,55.23c-2.18-5.48-4.69-11.12-8.2-15.2c-2.08-2.42-8.41-9.77-3.54-21.41c0.17-0.39,0.05-0.85-0.27-1.12
		c-0.22-0.19-5.46-4.81-1.82-16.24c0.09-0.29,0.04-0.61-0.14-0.86C42.53,0.15,42.24,0,41.93,0H37.4c-0.49,0-0.9,0.37-0.96,0.85
		l-0.02,0.18c-1.06,8.97-1.65,12.63-5.75,12.83c-6.04,0.31-6.99-12.82-7-12.95C23.64,0.4,23.22,0,22.7,0h-5.28
		c-0.34,0-0.66,0.18-0.84,0.47c-0.17,0.3-0.18,0.66-0.01,0.96c0.06,0.11,5.74,10.69-1.03,15.8c-0.42,0.31-0.51,0.9-0.21,1.32
		c0.05,0.08,5.18,7.71-1.68,16.81c-2.57,3.57-6.24,15.09-6.91,24.02c-0.02,0.2,0.03,0.39,0.13,0.56c0.08,0.14,2.05,3.33,8.28,1.49
		c0.03-0.01,3.13-0.87,4.69,0.88c1.43,1.58,3.3,0.93,4.43,0.55l0.26-0.09c0.73-0.23,1.54-0.16,2.18,0.18
		c0.77,0.42,1.93,1.05,3.25,1.05c0.96,0,2-0.33,3.04-1.3c0.02-0.01,1.45-1.14,3.46,0.17c2.5,1.63,4.23,0.52,5.38-0.21
		c1.05-0.67,1.45-0.85,2.16-0.44c1.96,1.11,4.14,0.73,5.98-1.05c0.34-0.34,0.84-0.51,1.33-0.44l2.76,0.38
		c0.06,0.01,0.12,0.01,0.18,0.01c0.17-0.01,1.67-0.12,2.51-1.44C57.46,58.6,57.43,57.1,56.69,55.23z M18.94,1.94h2.87
		c0.34,3.3,1.99,14.22,8.96,13.86c5.74-0.29,6.53-5.67,7.49-13.86h2.37c-2.72,9.87,0.87,14.99,2.29,16.54
		c-1.76,4.47-2,8.34-1.5,11.59c-0.92,0.28-2.35,0.64-3.59,0.64h-0.2c-0.11-0.02-0.21-0.01-0.32-0.02c-0.69-0.08-3.14-0.16-6.91-0.26
		h-0.1c-2.81-0.08-5.82-0.15-7.71-0.19c-0.5-0.01-0.93-0.02-1.25-0.03c-0.37,0-0.74-0.04-1.07-0.1l-1.66-0.43
		c1.41-5.42-0.35-9.75-1.24-11.45C22.94,13.31,20.33,5.21,18.94,1.94z M55.14,58.63c-0.26,0.4-0.75,0.51-0.93,0.54l-2.64-0.36
		c-1.08-0.15-2.18,0.22-2.95,0.97c-1.22,1.19-2.45,1.44-3.65,0.75c-1.79-1.02-3.17-0.14-4.17,0.5c-1.1,0.7-1.83,1.16-3.28,0.22
		c-3.18-2.08-5.63-0.14-5.79-0.01c-1.41,1.3-2.58,0.83-4.09,0.01c-0.68-0.37-1.44-0.56-2.22-0.56c-0.5,0-1,0.08-1.49,0.24l-0.29,0.1
		c-1.26,0.43-1.87,0.52-2.36-0.02c-2.38-2.66-6.5-1.5-6.68-1.44c-3.83,1.13-5.42,0.04-5.9-0.43c0.73-8.57,4.13-19.32,6.52-22.63
		c1.29-1.72,2.18-3.39,2.79-4.98l1.27,0.32c-0.1,1.73-0.56,6.21-2.64,10.83c-0.22,0.49,0,1.06,0.49,1.28
		c0.13,0.06,0.26,0.09,0.4,0.09c0.37,0,0.72-0.22,0.88-0.57c2.15-4.78,2.67-9.34,2.8-11.33h0.07c0.12,0.01,0.27,0.01,0.42,0.01
		c0.18,1.98,0.53,7.15-0.39,11.59c-0.11,0.52,0.23,1.04,0.75,1.14c0.07,0.02,0.14,0.02,0.2,0.02c0.45,0,0.85-0.31,0.95-0.77
		c0.95-4.57,0.64-9.71,0.44-11.93c1.45,0.03,3.26,0.07,5.11,0.12c-2.33,5.12-2.57,9.2-2.58,9.38c-0.02,0.54,0.39,0.99,0.93,1.02
		h0.04c0.52,0,0.95-0.4,0.97-0.92c0-0.04,0.2-3.47,2.06-7.91c0.63,2.12,1.36,5.36,0.86,8.6c-0.08,0.52,0.29,1.02,0.81,1.1
		c0.05,0.01,0.1,0.01,0.15,0.01c0.47,0,0.89-0.34,0.96-0.82c0.63-4.15-0.54-8.3-1.21-10.39c1.61,0.05,3.55,0.11,4.65,0.17
		c-0.36,2.66-0.93,8.25-0.16,13.21c0.07,0.48,0.49,0.82,0.96,0.82c0.04,0,0.09-0.01,0.15-0.01c0.52-0.09,0.89-0.58,0.8-1.11
		c-0.58-3.78-0.34-7.99-0.05-10.83c2.08,4.91,3.37,10.05,3.39,10.11c0.1,0.44,0.5,0.74,0.94,0.74c0.07,0,0.15-0.01,0.23-0.03
		c0.52-0.13,0.84-0.66,0.71-1.18c-0.07-0.27-1.59-6.35-4.08-11.75c0.93-0.13,1.82-0.36,2.53-0.57c1.23,4.7,3.93,7.85,5.2,9.32
		c3.33,3.87,5.75,9.33,7.86,14.65C55.37,57.16,55.46,58.11,55.14,58.63z"/><path fill="#d6d6d6" d="M41.42,30.07c-0.92,0.28-2.35,0.64-3.59,0.64h-0.2c-0.11-0.02-0.21-0.01-0.32-0.02
		c-0.69-0.08-3.14-0.16-6.91-0.26h-0.1c-2.81-0.08-5.82-0.15-7.71-0.19c-0.5-0.01-0.93-0.02-1.25-0.03c-0.37,0-0.74-0.04-1.07-0.1
		l-1.66-0.43c1.41-5.42-0.35-9.75-1.24-11.45c5.57-4.92,2.96-13.02,1.57-16.29h2.87c0.34,3.3,1.99,14.22,8.96,13.86
		c5.74-0.29,6.53-5.67,7.49-13.86h2.37c-2.72,9.87,0.87,14.99,2.29,16.54C41.16,22.95,40.92,26.82,41.42,30.07z"/><path fill="#f26e61" d="M55.14,58.63c-0.26,0.4-0.75,0.51-0.93,0.54l-2.64-0.36c-1.08-0.15-2.18,0.22-2.95,0.97
		c-1.22,1.19-2.45,1.44-3.65,0.75c-1.79-1.02-3.17-0.14-4.17,0.5c-1.1,0.7-1.83,1.16-3.28,0.22c-3.18-2.08-5.63-0.14-5.79-0.01
		c-1.41,1.3-2.58,0.83-4.09,0.01c-0.68-0.37-1.44-0.56-2.22-0.56c-0.5,0-1,0.08-1.49,0.24l-0.29,0.1c-1.26,0.43-1.87,0.52-2.36-0.02
		c-2.38-2.66-6.5-1.5-6.68-1.44c-3.83,1.13-5.42,0.04-5.9-0.43c0.73-8.57,4.13-19.32,6.52-22.63c1.29-1.72,2.18-3.39,2.79-4.98
		l1.27,0.32c-0.1,1.73-0.56,6.21-2.64,10.83c-0.22,0.49,0,1.06,0.49,1.28c0.13,0.06,0.26,0.09,0.4,0.09c0.37,0,0.72-0.22,0.88-0.57
		c2.15-4.78,2.67-9.34,2.8-11.33h0.07c0.12,0.01,0.27,0.01,0.42,0.01c0.18,1.98,0.53,7.15-0.39,11.59
		c-0.11,0.52,0.23,1.04,0.75,1.14c0.07,0.02,0.14,0.02,0.2,0.02c0.45,0,0.85-0.31,0.95-0.77c0.95-4.57,0.64-9.71,0.44-11.93
		c1.45,0.03,3.26,0.07,5.11,0.12c-2.33,5.12-2.57,9.2-2.58,9.38c-0.02,0.54,0.39,0.99,0.93,1.02h0.04c0.52,0,0.95-0.4,0.97-0.92
		c0-0.04,0.2-3.47,2.06-7.91c0.63,2.12,1.36,5.36,0.86,8.6c-0.08,0.52,0.29,1.02,0.81,1.1c0.05,0.01,0.1,0.01,0.15,0.01
		c0.47,0,0.89-0.34,0.96-0.82c0.63-4.15-0.54-8.3-1.21-10.39c1.61,0.05,3.55,0.11,4.65,0.17c-0.36,2.66-0.93,8.25-0.16,13.21
		c0.07,0.48,0.49,0.82,0.96,0.82c0.04,0,0.09-0.01,0.15-0.01c0.52-0.09,0.89-0.58,0.8-1.11c-0.58-3.78-0.34-7.99-0.05-10.83
		c2.08,4.91,3.37,10.05,3.39,10.11c0.1,0.44,0.5,0.74,0.94,0.74c0.07,0,0.15-0.01,0.23-0.03c0.52-0.13,0.84-0.66,0.71-1.18
		c-0.07-0.27-1.59-6.35-4.08-11.75c0.93-0.13,1.82-0.36,2.53-0.57c1.23,4.7,3.93,7.85,5.2,9.32c3.33,3.87,5.75,9.33,7.86,14.65
		C55.37,57.16,55.46,58.11,55.14,58.63z"/></svg>