<svg xmlns="http://www.w3.org/2000/svg" width="32" height="32" viewBox="0 0 32 32"><g transform="translate(-33.5 -1020.362)"><path fill="#ff5855" stroke="#373449" d="m 41.032852,1035.3529 c -3.040661,-3.6528 -2.622501,-9.1455 0.933986,-12.2686 3.092444,-2.7154 8.969441,-2.7434 11.79151,-1.1541 2.822069,1.5893 3.731146,3.5224 3.741628,5.5176"/><path fill="#ffe695" stroke="#373449" stroke-linecap="round" stroke-linejoin="round" stroke-width=".815" d="m 13.417578,15.044079 a 2,2 0 0 1 1.582282,1.979591 2,2 0 0 1 -1.628692,1.941587" transform="matrix(1.18865 0 0 1.26662 43.17 1017.84)"/><path fill="#ffe695" stroke="#373449" stroke-linecap="round" stroke-linejoin="round" stroke-width=".815" d="m 13.380143,15.036459 a 2,2 0 0 1 1.619852,1.96811 2,2 0 0 1 -1.628827,1.960688" transform="matrix(-1.18865 0 0 1.26662 56.83 1017.84)"/><path fill="#ffe695" stroke="#373449" stroke-linecap="round" stroke-linejoin="round" d="m 57.499976,1027.3622 -16.5,8.3246 0,5.846 c 0,6.0051 4.013998,10.3294 9,10.3294 4.985999,0 9,-4.3243 9,-10.3294 l 0,-5.846 -8.65468,-4.619"/><path fill="#ff5855" stroke="#373449" stroke-linecap="round" stroke-linejoin="round" d="m 58.966718,1035.6495 c 1.378578,-2 1.533258,-7.2873 -1.466742,-8.2873 l -7.156226,3.625 z"/><circle cx="13" cy="17" r="2" fill="#60c5b8" stroke="#373449" stroke-linecap="square" stroke-linejoin="round" stroke-width=".667" transform="matrix(1.5 0 0 1.5 35 1013.412)"/><path fill="none" stroke="#373449" d="m 54.484351,1038.3373 0,1.5249"/><circle cx="13" cy="17" r="2" fill="#60c5b8" stroke="#373449" stroke-linecap="square" stroke-linejoin="round" stroke-width=".507" transform="matrix(2.59377 0 0 1.50001 16.281 1021.362)"/><path fill="#ff5855" stroke="#373449" stroke-linecap="round" stroke-linejoin="round" d="m 47.286608,1046.7651 c 0,0 0.950875,-0.9029 1.420366,-0.9029 0.469492,0 0.83874,0.5485 1.259777,0.5485 0.421039,0 0.790286,-0.5485 1.259778,-0.5485 0.469492,0 1.486815,0.9029 1.486815,0.9029 -0.548211,0.7313 -1.880892,1.0971 -2.746592,1.0971 -0.8657,0 -2.065484,-0.3658 -2.680144,-1.0971 z"/><circle cx="13" cy="17" r="2" fill="#60c5b8" stroke="#373449" stroke-linecap="square" stroke-linejoin="round" stroke-width=".667" transform="matrix(1.5 0 0 1.5 26 1013.412)"/><path fill="none" stroke="#373449" stroke-linecap="round" stroke-linejoin="round" stroke-width=".8" d="M 14.414214,18.414214 A 2,2 0 0 1 13,19 2,2 0 0 1 11.585786,18.414214" transform="matrix(1.25 0 0 1.25 38.296 1015.073)"/><path fill="none" stroke="#373449" stroke-linecap="round" stroke-linejoin="round" stroke-width=".8" d="M 14.414214,18.414214 A 2,2 0 0 1 13,19 2,2 0 0 1 11.585786,18.414214" transform="matrix(1.25 0 0 1.25 29.273 1015.073)"/><path fill="none" stroke="#373449" d="M44.499976 1038.3373l-1 1M45.499976 1038.3373l0 1.5249M46.499976 1038.3373l1 1M53.484351 1038.3373l-1 1M55.484351 1038.3373l1 1"/></g></svg>