<svg xmlns="http://www.w3.org/2000/svg" viewBox="0 0 48 48"><path fill="#BDBDBD" d="M42 17H6v-3c0-1.105.895-2 2-2h32c1.105 0 2 .895 2 2z"/><path fill="#6A1B9A" d="M43 16.809c-.434-1.387-1.648-2.34-3.121-2.34-1.559 0-3.984-1.477-5.2-2.602-.605-.52-1.386-.867-2.253-.867H15.574c-.867 0-1.648.348-2.254.867-1.215 1.125-3.64 2.602-5.199 2.602-1.473 0-2.687.953-3.121 2.34C4.219 19.754 4 26.574 4 29c0 .691.395 1.629.914 2.148 1.04 1.04 3.54 2.665 8.738 2.836.262 0 .52.086.696.262 1.035.691 3.636 1.746 9.652 1.754 6.016-.008 8.617-1.063 9.652-1.754.172-.176.434-.262.692-.262 5.203-.172 7.703-1.797 8.742-2.836.52-.52.914-1.457.914-2.148 0-2.426-.219-9.246-1-12.191z"/><path fill="#1E88E5" d="M32.063 29H15.936c-.519 0-.937-.402-.937-.895v-11.21c0-.493.418-.895.938-.895h16.124c.52 0 .938.402.938.895v11.21c0 .493-.418.895-.938.895z"/><path fill="#212121" d="M32.063 16c.519 0 .937.402.937.895v11.21c0 .493-.418.895-.938.895H15.939c-.52 0-.938-.402-.938-.895v-11.21c0-.493.418-.895.938-.895H32m-11-3c-8 0-8 2.344-8 3.992V27.95C13 29.598 13 33 23 33h2c10 0 10-3.402 10-5.05V16.991C35 15.344 35 13 27 13z"/><path fill="#BDBDBD" d="M8 16h2v6H8z"/><path fill="#BDBDBD" d="M6 18h6v2H6zM42 18.5a1.5 1.5 0 11-3 0 1.5 1.5 0 013 0zM39 21.5a1.5 1.5 0 11-3 0 1.5 1.5 0 013 0z"/><path fill="none" stroke="#212121" stroke-linecap="round" stroke-miterlimit="10" stroke-width="2" d="M11 27l-4-2"/><path fill="#BDBDBD" d="M12 27c0 .55-.45 1-1 1s-1-.45-1-1 .45-1 1-1 1 .45 1 1z"/><path fill="none" stroke="#212121" stroke-linecap="round" stroke-miterlimit="10" stroke-width="2" d="M11 30l-4-2"/><path fill="#BDBDBD" d="M12 30c0 .55-.45 1-1 1s-1-.45-1-1 .45-1 1-1 1 .45 1 1z"/><path fill="none" stroke="#212121" stroke-linecap="round" stroke-miterlimit="10" d="M41 24l-4 2M41 26l-4 2M41 28l-4 2"/></svg>